<svg width="32" height="30" viewBox="0 0 32 30" fill="none" xmlns="http://www.w3.org/2000/svg">
<mask id="path-1-outside-1_30_175" maskUnits="userSpaceOnUse" x="0" y="0" width="32" height="30" fill="black">
<rect fill="white" width="32" height="30"/>
<path d="M16.1641 28.3252C15.8564 28.3252 15.417 28.1201 15.1094 27.9297C6.84766 22.6562 1.61816 16.5186 1.61816 10.2783C1.61816 5.09277 5.17773 1.43066 9.77734 1.43066C12.6338 1.43066 14.8604 3.02734 16.1641 5.42969C17.4971 3.0127 19.6943 1.43066 22.5508 1.43066C27.1504 1.43066 30.71 5.09277 30.71 10.2783C30.71 16.5186 25.4805 22.6562 17.2334 27.9297C16.9111 28.1201 16.4717 28.3252 16.1641 28.3252Z"/>
</mask>
<path d="M15.1094 27.9297L14.5713 28.7727L14.583 28.78L15.1094 27.9297ZM16.1641 5.42969L15.2851 5.90666L16.157 7.51319L17.0397 5.91262L16.1641 5.42969ZM17.2334 27.9297L17.7421 28.7906L17.7573 28.7817L17.7721 28.7722L17.2334 27.9297ZM16.1641 27.3252C16.1924 27.3252 16.1916 27.3291 16.1541 27.3197C16.1197 27.3112 16.071 27.2957 16.0097 27.271C15.8852 27.221 15.7498 27.15 15.6357 27.0794L14.583 28.78C14.7766 28.8998 15.0147 29.0266 15.2638 29.1267C15.4937 29.2191 15.8207 29.3252 16.1641 29.3252V27.3252ZM15.6474 27.0868C7.43057 21.842 2.61816 15.9647 2.61816 10.2783H0.618164C0.618164 17.0724 6.26474 23.4705 14.5713 28.7726L15.6474 27.0868ZM2.61816 10.2783C2.61816 5.58253 5.79054 2.43066 9.77734 2.43066V0.430664C4.56492 0.430664 0.618164 4.60302 0.618164 10.2783H2.61816ZM9.77734 2.43066C12.2081 2.43066 14.1263 3.77122 15.2851 5.90666L17.043 4.95271C15.5944 2.28347 13.0595 0.430664 9.77734 0.430664V2.43066ZM17.0397 5.91262C18.2302 3.75406 20.1229 2.43066 22.5508 2.43066V0.430664C19.2658 0.430664 16.7639 2.27133 15.2884 4.94675L17.0397 5.91262ZM22.5508 2.43066C26.5376 2.43066 29.71 5.58253 29.71 10.2783H31.71C31.71 4.60302 27.7632 0.430664 22.5508 0.430664V2.43066ZM29.71 10.2783C29.71 15.965 24.8972 21.8423 16.6947 27.0872L17.7721 28.7722C26.0638 23.4702 31.71 17.0721 31.71 10.2783H29.71ZM16.7247 27.0688C16.5953 27.1452 16.452 27.2186 16.3234 27.2698C16.2599 27.295 16.21 27.3109 16.1748 27.3196C16.1366 27.3291 16.1357 27.3252 16.1641 27.3252V29.3252C16.5072 29.3252 16.8341 29.2191 17.0631 29.1279C17.3117 29.029 17.5493 28.9046 17.7421 28.7906L16.7247 27.0688Z" fill="#7993AE" mask="url(#path-1-outside-1_30_175)"/>
</svg>
